<?xml version="1.0" standalone="no"?>
<!DOCTYPE svg PUBLIC "-//W3C//DTD SVG 20010904//EN"
 "http://www.w3.org/TR/2001/REC-SVG-20010904/DTD/svg10.dtd">
<svg version="1.0" xmlns="http://www.w3.org/2000/svg"
 width="395.000000pt" height="395.000000pt" viewBox="0 0 395.000000 395.000000"
 preserveAspectRatio="xMidYMid meet">
<metadata>
Created by potrace 1.14, written by Peter Selinger 2001-2017
</metadata>
<g transform="translate(0.000000,395.000000) scale(0.100000,-0.100000)"
fill="#000000" stroke="none">
<path d="M0 1975 l0 -1975 1975 0 1975 0 0 1975 0 1975 -1975 0 -1975 0 0
-1975z m1550 1245 l0 -300 -215 0 -215 0 0 300 0 300 215 0 215 0 0 -300z
m1320 0 l0 -300 -215 0 -215 0 0 300 0 300 215 0 215 0 0 -300z m-2010 -680
l0 -150 -215 0 -215 0 0 150 0 150 215 0 215 0 0 -150z m690 -150 l0 -300
-215 0 -215 0 0 300 0 300 215 0 215 0 0 -300z m660 150 l0 -150 -215 0 -215
0 0 150 0 150 215 0 215 0 0 -150z m660 -150 l0 -300 -215 0 -215 0 0 300 0
300 215 0 215 0 0 -300z m660 150 l0 -150 -215 0 -215 0 0 150 0 150 215 0
215 0 0 -150z m-1980 -990 l0 -300 -215 0 -215 0 0 300 0 300 215 0 215 0 0
-300z m1320 0 l0 -300 -215 0 -215 0 0 300 0 300 215 0 215 0 0 -300z m-2010
-150 l0 -150 -215 0 -215 0 0 150 0 150 215 0 215 0 0 -150z m1350 0 l0 -150
-215 0 -215 0 0 150 0 150 215 0 215 0 0 -150z m1320 0 l0 -150 -215 0 -215 0
0 150 0 150 215 0 215 0 0 -150z m-1980 -680 l0 -300 -215 0 -215 0 0 300 0
300 215 0 215 0 0 -300z m1320 0 l0 -300 -215 0 -215 0 0 300 0 300 215 0 215
0 0 -300z"/>
</g>
</svg>
